<?xml version="1.0" encoding="UTF-8" standalone="no"?>
<svg width="1188.97mm" height="840.994mm"
 viewBox="0 0 14043 9933"
 xmlns="http://www.w3.org/2000/svg" xmlns:xlink="http://www.w3.org/1999/xlink"  version="1.2" baseProfile="tiny">
<defs>
</defs>
<g fill="none" stroke="black" stroke-width="1" fill-rule="evenodd" stroke-linecap="square" stroke-linejoin="bevel" >

<g fill="#ffffff" fill-opacity="1" stroke="none" transform="matrix(1,0,0,1,0,0)"
font-family="Arial" font-size="12" font-weight="400" font-style="normal" 
>
<rect x="0" y="0" width="14043" height="9933"/>
</g>

<g fill="none" stroke="#000000" stroke-opacity="1" stroke-width="1" stroke-linecap="square" stroke-linejoin="bevel" transform="matrix(1,0,0,1,0,0)"
font-family="Arial" font-size="12" font-weight="400" font-style="normal" 
>
</g>

<g fill="#000000" fill-opacity="1" stroke="#000000" stroke-opacity="1" stroke-width="1" stroke-linecap="butt" stroke-linejoin="miter" stroke-miterlimit="2" transform="matrix(1,0,0,1,0,0)"
font-family="Arial" font-size="12" font-weight="400" font-style="normal" 
>
</g>

<g fill="#000000" fill-opacity="1" stroke="#000000" stroke-opacity="1" stroke-width="5" stroke-linecap="round" stroke-linejoin="bevel" transform="matrix(1,0,0,1,0,0)"
font-family="Arial" font-size="12" font-weight="400" font-style="normal" 
>
<polyline fill="none" vector-effect="none" points="284.159,297.424 284.328,291.774 284.835,286.143 285.677,280.553 286.853,275.023 288.357,269.574 290.184,264.224 292.328,258.993 294.78,253.9 297.533,248.962 300.577,244.198 303.9,239.625 307.49,235.258 311.335,231.114 315.421,227.207 319.734,223.552 324.257,220.161 328.975,217.047 333.871,214.22 338.927,211.691 344.125,209.47 349.447,207.563 354.873,205.977 360.385,204.719 365.962,203.793 371.584,203.202 377.231,202.949 382.884,203.033 388.521,203.456 394.123,204.215 399.67,205.307 405.141,206.729 410.518,208.476 415.78,210.542 420.91,212.918 425.888,215.597 430.697,218.569 435.32,221.823 439.74,225.347 443.941,229.13 447.908,233.157 451.628,237.415 455.086,241.887 458.27,246.558 461.17,251.411 463.774,256.428 466.073,261.593 468.06,266.885 469.726,272.287 471.066,277.78 472.076,283.342 472.751,288.955 473.089,294.598 473.089,300.251 472.751,305.894 472.076,311.507 471.066,317.069 469.726,322.561 468.06,327.963 466.073,333.256 463.774,338.42 461.17,343.438 458.27,348.291 455.086,352.962 451.628,357.434 447.908,361.691 443.941,365.718 439.74,369.501 435.32,373.026 430.697,376.28 425.888,379.252 420.91,381.931 415.78,384.307 410.518,386.372 405.141,388.119 399.67,389.541 394.123,390.634 388.521,391.393 382.884,391.815 377.231,391.9 371.584,391.646 365.962,391.055 360.385,390.129 354.873,388.871 349.447,387.286 344.125,385.379 338.927,383.157 333.871,380.628 328.975,377.802 324.257,374.687 319.734,371.297 315.421,367.641 311.335,363.734 307.49,359.59 303.9,355.224 300.577,350.65 297.533,345.886 294.78,340.949 292.328,335.855 290.184,330.624 288.357,325.275 286.853,319.825 285.677,314.295 284.835,308.705 284.328,303.075 284.159,297.424 " />
<polyline fill="none" vector-effect="none" points="815.643,297.424 815.812,291.774 816.319,286.143 817.162,280.553 818.337,275.023 819.841,269.574 821.668,264.224 823.812,258.993 826.265,253.9 829.018,248.962 832.061,244.198 835.384,239.625 838.975,235.258 842.82,231.114 846.906,227.207 851.218,223.552 855.742,220.161 860.46,217.047 865.355,214.22 870.411,211.691 875.61,209.47 880.932,207.563 886.358,205.977 891.869,204.719 897.446,203.793 903.068,203.202 908.716,202.949 914.368,203.033 920.006,203.456 925.608,204.215 931.155,205.307 936.626,206.729 942.002,208.476 947.265,210.542 952.394,212.918 957.372,215.597 962.181,218.569 966.804,221.823 971.224,225.347 975.425,229.13 979.393,233.157 983.112,237.415 986.57,241.887 989.755,246.558 992.654,251.411 995.258,256.428 997.558,261.593 999.544,266.885 1001.21,272.287 1002.55,277.78 1003.56,283.342 1004.24,288.955 1004.57,294.598 1004.57,300.251 1004.24,305.894 1003.56,311.507 1002.55,317.069 1001.21,322.561 999.544,327.963 997.558,333.256 995.258,338.42 992.654,343.438 989.755,348.291 986.57,352.962 983.112,357.434 979.393,361.691 975.425,365.718 971.224,369.501 966.804,373.026 962.181,376.28 957.372,379.252 952.394,381.931 947.265,384.307 942.002,386.372 936.626,388.119 931.155,389.541 925.608,390.634 920.006,391.393 914.368,391.815 908.716,391.9 903.068,391.646 897.446,391.055 891.869,390.129 886.358,388.871 880.932,387.286 875.61,385.379 870.411,383.157 865.355,380.628 860.46,377.802 855.742,374.687 851.218,371.297 846.906,367.641 842.82,363.734 838.975,359.59 835.384,355.224 832.061,350.65 829.018,345.886 826.265,340.949 823.812,335.855 821.668,330.624 819.841,325.275 818.337,319.825 817.162,314.295 816.319,308.705 815.812,303.075 815.643,297.424 " />
<polyline fill="none" vector-effect="none" points="1347.13,297.424 1347.3,291.774 1347.8,286.143 1348.65,280.553 1349.82,275.023 1351.33,269.574 1353.15,264.224 1355.3,258.993 1357.75,253.9 1360.5,248.962 1363.55,244.198 1366.87,239.625 1370.46,235.258 1374.3,231.114 1378.39,227.207 1382.7,223.552 1387.23,220.161 1391.94,217.047 1396.84,214.22 1401.9,211.691 1407.09,209.47 1412.42,207.563 1417.84,205.977 1423.35,204.719 1428.93,203.793 1434.55,203.202 1440.2,202.949 1445.85,203.033 1451.49,203.456 1457.09,204.215 1462.64,205.307 1468.11,206.729 1473.49,208.476 1478.75,210.542 1483.88,212.918 1488.86,215.597 1493.67,218.569 1498.29,221.823 1502.71,225.347 1506.91,229.13 1510.88,233.157 1514.6,237.415 1518.05,241.887 1521.24,246.558 1524.14,251.411 1526.74,256.428 1529.04,261.593 1531.03,266.885 1532.69,272.287 1534.04,277.78 1535.04,283.342 1535.72,288.955 1536.06,294.598 1536.06,300.251 1535.72,305.894 1535.04,311.507 1534.04,317.069 1532.69,322.561 1531.03,327.963 1529.04,333.256 1526.74,338.42 1524.14,343.438 1521.24,348.291 1518.05,352.962 1514.6,357.434 1510.88,361.691 1506.91,365.718 1502.71,369.501 1498.29,373.026 1493.67,376.28 1488.86,379.252 1483.88,381.931 1478.75,384.307 1473.49,386.372 1468.11,388.119 1462.64,389.541 1457.09,390.634 1451.49,391.393 1445.85,391.815 1440.2,391.9 1434.55,391.646 1428.93,391.055 1423.35,390.129 1417.84,388.871 1412.42,387.286 1407.09,385.379 1401.9,383.157 1396.84,380.628 1391.94,377.802 1387.23,374.687 1382.7,371.297 1378.39,367.641 1374.3,363.734 1370.46,359.59 1366.87,355.224 1363.55,350.65 1360.5,345.886 1357.75,340.949 1355.3,335.855 1353.15,330.624 1351.33,325.275 1349.82,319.825 1348.65,314.295 1347.8,308.705 1347.3,303.075 1347.13,297.424 " />
<polyline fill="none" vector-effect="none" points="1878.61,297.424 1878.78,291.774 1879.29,286.143 1880.13,280.553 1881.31,275.023 1882.81,269.574 1884.64,264.224 1886.78,258.993 1889.23,253.9 1891.99,248.962 1895.03,244.198 1898.35,239.625 1901.94,235.258 1905.79,231.114 1909.87,227.207 1914.19,223.552 1918.71,220.161 1923.43,217.047 1928.32,214.22 1933.38,211.691 1938.58,209.47 1943.9,207.563 1949.33,205.977 1954.84,204.719 1960.42,203.793 1966.04,203.202 1971.68,202.949 1977.34,203.033 1982.97,203.456 1988.58,204.215 1994.12,205.307 1999.59,206.729 2004.97,208.476 2010.23,210.542 2015.36,212.918 2020.34,215.597 2025.15,218.569 2029.77,221.823 2034.19,225.347 2038.39,229.13 2042.36,233.157 2046.08,237.415 2049.54,241.887 2052.72,246.558 2055.62,251.411 2058.23,256.428 2060.53,261.593 2062.51,266.885 2064.18,272.287 2065.52,277.78 2066.53,283.342 2067.2,288.955 2067.54,294.598 2067.54,300.251 2067.2,305.894 2066.53,311.507 2065.52,317.069 2064.18,322.561 2062.51,327.963 2060.53,333.256 2058.23,338.42 2055.62,343.438 2052.72,348.291 2049.54,352.962 2046.08,357.434 2042.36,361.691 2038.39,365.718 2034.19,369.501 2029.77,373.026 2025.15,376.28 2020.34,379.252 2015.36,381.931 2010.23,384.307 2004.97,386.372 1999.59,388.119 1994.12,389.541 1988.58,390.634 1982.97,391.393 1977.34,391.815 1971.68,391.9 1966.04,391.646 1960.42,391.055 1954.84,390.129 1949.33,388.871 1943.9,387.286 1938.58,385.379 1933.38,383.157 1928.32,380.628 1923.43,377.802 1918.71,374.687 1914.19,371.297 1909.87,367.641 1905.79,363.734 1901.94,359.59 1898.35,355.224 1895.03,350.65 1891.99,345.886 1889.23,340.949 1886.78,335.855 1884.64,330.624 1882.81,325.275 1881.31,319.825 1880.13,314.295 1879.29,308.705 1878.78,303.075 1878.61,297.424 " />
<polyline fill="none" vector-effect="none" points="2410.1,297.424 2410.27,291.774 2410.77,286.143 2411.62,280.553 2412.79,275.023 2414.29,269.574 2416.12,264.224 2418.27,258.993 2420.72,253.9 2423.47,248.962 2426.51,244.198 2429.84,239.625 2433.43,235.258 2437.27,231.114 2441.36,227.207 2445.67,223.552 2450.19,220.161 2454.91,217.047 2459.81,214.22 2464.86,211.691 2470.06,209.47 2475.38,207.563 2480.81,205.977 2486.32,204.719 2491.9,203.793 2497.52,203.202 2503.17,202.949 2508.82,203.033 2514.46,203.456 2520.06,204.215 2525.61,205.307 2531.08,206.729 2536.46,208.476 2541.72,210.542 2546.85,212.918 2551.83,215.597 2556.63,218.569 2561.26,221.823 2565.68,225.347 2569.88,229.13 2573.85,233.157 2577.57,237.415 2581.02,241.887 2584.21,246.558 2587.11,251.411 2589.71,256.428 2592.01,261.593 2594,266.885 2595.66,272.287 2597,277.78 2598.01,283.342 2598.69,288.955 2599.03,294.598 2599.03,300.251 2598.69,305.894 2598.01,311.507 2597,317.069 2595.66,322.561 2594,327.963 2592.01,333.256 2589.71,338.42 2587.11,343.438 2584.21,348.291 2581.02,352.962 2577.57,357.434 2573.85,361.691 2569.88,365.718 2565.68,369.501 2561.26,373.026 2556.63,376.28 2551.83,379.252 2546.85,381.931 2541.72,384.307 2536.46,386.372 2531.08,388.119 2525.61,389.541 2520.06,390.634 2514.46,391.393 2508.82,391.815 2503.17,391.9 2497.52,391.646 2491.9,391.055 2486.32,390.129 2480.81,388.871 2475.38,387.286 2470.06,385.379 2464.86,383.157 2459.81,380.628 2454.91,377.802 2450.19,374.687 2445.67,371.297 2441.36,367.641 2437.27,363.734 2433.43,359.59 2429.84,355.224 2426.51,350.65 2423.47,345.886 2420.72,340.949 2418.27,335.855 2416.12,330.624 2414.29,325.275 2412.79,319.825 2411.62,314.295 2410.77,308.705 2410.27,303.075 2410.1,297.424 " />
<polyline fill="none" vector-effect="none" points="2208.05,563.285 2514.9,563.285 " />
<polyline fill="none" vector-effect="none" points="2208.05,525.667 2208.05,563.285 " />
<polyline fill="none" vector-effect="none" points="1901.66,525.667 2208.05,525.667 " />
<polyline fill="none" vector-effect="none" points="1901.66,525.667 1901.66,563.285 " />
<polyline fill="none" vector-effect="none" points="1594.81,563.285 1901.66,563.285 " />
<polyline fill="none" vector-effect="none" points="1594.81,525.667 1594.81,563.285 " />
<polyline fill="none" vector-effect="none" points="1288.42,525.667 1594.81,525.667 " />
<polyline fill="none" vector-effect="none" points="1288.42,525.667 1288.42,563.285 " />
<polyline fill="none" vector-effect="none" points="981.565,563.285 1288.42,563.285 " />
<polyline fill="none" vector-effect="none" points="981.565,525.667 981.565,563.285 " />
<polyline fill="none" vector-effect="none" points="675.18,525.667 981.565,525.667 " />
<polyline fill="none" vector-effect="none" points="675.18,525.667 675.18,563.285 " />
<polyline fill="none" vector-effect="none" points="368.324,563.285 675.18,563.285 " />
<polyline fill="none" vector-effect="none" points="368.324,525.667 368.324,563.285 " />
<polyline fill="none" vector-effect="none" points="61.8212,525.667 368.324,525.667 " />
<polyline fill="none" vector-effect="none" points="61.8212,386.123 61.8212,525.667 " />
<polyline fill="none" vector-effect="none" points="61.8212,386.123 24.2039,386.123 " />
<polyline fill="none" vector-effect="none" points="24.2039,208.725 24.2039,386.123 " />
<polyline fill="none" vector-effect="none" points="61.8212,208.725 24.2039,208.725 " />
<polyline fill="none" vector-effect="none" points="2821.41,208.725 2821.41,69.1812 " />
<polyline fill="none" vector-effect="none" points="2821.41,208.725 2859.02,208.725 " />
<polyline fill="none" vector-effect="none" points="2859.02,208.725 2859.02,386.123 " />
<polyline fill="none" vector-effect="none" points="2821.41,386.123 2859.02,386.123 " />
<polyline fill="none" vector-effect="none" points="2821.41,525.667 2821.41,386.123 " />
<polyline fill="none" vector-effect="none" points="2514.9,525.667 2821.41,525.667 " />
<polyline fill="none" vector-effect="none" points="2514.9,525.667 2514.9,563.285 " />
<polyline fill="none" vector-effect="none" points="2216.27,31.564 2526.14,31.564 " />
<polyline fill="none" vector-effect="none" points="357.09,31.564 666.954,31.564 " />
<polyline fill="none" vector-effect="none" points="976.818,31.564 1286.68,31.564 " />
<polyline fill="none" vector-effect="none" points="2526.14,69.1812 2821.41,69.1812 " />
<polyline fill="none" vector-effect="none" points="2526.14,31.564 2526.14,69.1812 " />
<polyline fill="none" vector-effect="none" points="1596.55,31.564 1906.41,31.564 " />
<polyline fill="none" vector-effect="none" points="357.09,31.564 357.09,69.1812 " />
<polyline fill="none" vector-effect="none" points="2216.27,31.564 2216.27,69.1812 " />
<polyline fill="none" vector-effect="none" points="61.8212,69.1812 357.09,69.1812 " />
<polyline fill="none" vector-effect="none" points="1286.68,69.1812 1596.55,69.1812 " />
<polyline fill="none" vector-effect="none" points="1596.55,31.564 1596.55,69.1812 " />
<polyline fill="none" vector-effect="none" points="1286.68,31.564 1286.68,69.1812 " />
<polyline fill="none" vector-effect="none" points="666.954,69.1812 976.818,69.1812 " />
<polyline fill="none" vector-effect="none" points="666.954,31.564 666.954,69.1812 " />
<polyline fill="none" vector-effect="none" points="1906.41,69.1812 2216.27,69.1812 " />
<polyline fill="none" vector-effect="none" points="61.8212,69.1812 61.8212,208.725 " />
<polyline fill="none" vector-effect="none" points="1906.41,31.564 1906.41,69.1812 " />
<polyline fill="none" vector-effect="none" points="976.818,31.564 976.818,69.1812 " />
<polyline fill="none" vector-effect="none" points="1065.97,1886.44 1065.97,1579.82 " />
<polyline fill="none" vector-effect="none" points="1028.36,1579.82 1065.97,1579.82 " />
<polyline fill="none" vector-effect="none" points="1855.34,955.343 1855.34,659.956 " />
<polyline fill="none" vector-effect="none" points="1855.34,2814.53 1855.34,2504.43 " />
<polyline fill="none" vector-effect="none" points="1855.34,3419.54 1855.34,3124.15 " />
<polyline fill="none" vector-effect="none" points="1303.94,3457.16 1579.76,3457.16 " />
<polyline fill="none" vector-effect="none" points="1028.36,3419.54 1028.36,3112.92 " />
<polyline fill="none" vector-effect="none" points="1028.36,3112.92 1065.97,3112.92 " />
<polyline fill="none" vector-effect="none" points="1303.94,622.338 1579.76,622.338 " />
<polyline fill="none" vector-effect="none" points="1028.36,2806.3 1028.36,2499.68 " />
<polyline fill="none" vector-effect="none" points="1303.94,3419.54 1303.94,3457.16 " />
<polyline fill="none" vector-effect="none" points="1028.36,3419.54 1303.94,3419.54 " />
<polyline fill="none" vector-effect="none" points="1579.76,3419.54 1855.34,3419.54 " />
<polyline fill="none" vector-effect="none" points="1579.76,3419.54 1579.76,3457.16 " />
<polyline fill="none" vector-effect="none" points="1303.94,659.956 1028.36,659.956 " />
<polyline fill="none" vector-effect="none" points="1579.76,659.956 1579.76,622.338 " />
<polyline fill="none" vector-effect="none" points="1855.34,659.956 1579.76,659.956 " />
<polyline fill="none" vector-effect="none" points="1817.73,2814.53 1855.34,2814.53 " />
<polyline fill="none" vector-effect="none" points="1817.73,3124.15 1817.73,2814.53 " />
<polyline fill="none" vector-effect="none" points="1028.36,2806.3 1065.97,2806.3 " />
<polyline fill="none" vector-effect="none" points="1817.73,1575.07 1855.34,1575.07 " />
<polyline fill="none" vector-effect="none" points="1150.75,868.743 1150.91,862.306 1151.41,855.886 1152.25,849.502 1153.41,843.169 1154.9,836.905 1156.72,830.727 1158.85,824.651 1161.29,818.694 1164.04,812.873 1167.09,807.201 1170.43,801.696 1174.05,796.371 1177.95,791.242 1182.1,786.321 1186.5,781.623 1191.14,777.16 1196.01,772.943 1201.09,768.985 1206.36,765.295 1211.83,761.885 1217.46,758.762 1223.24,755.936 1229.17,753.414 1235.21,751.203 1241.37,749.309 1247.61,747.737 1253.93,746.491 1260.3,745.575 1266.72,744.991 1273.15,744.74 1279.59,744.824 1286.01,745.241 1292.41,745.992 1298.76,747.073 1305.04,748.483 1311.24,750.216 1317.34,752.27 1323.33,754.637 1329.19,757.312 1334.9,760.287 1340.45,763.555 1345.82,767.106 1351,770.931 1355.97,775.02 1360.73,779.361 1365.25,783.944 1369.53,788.755 1373.55,793.781 1377.31,799.01 1380.79,804.427 1383.99,810.017 1386.89,815.766 1389.49,821.657 1391.78,827.675 1393.75,833.804 1395.4,840.027 1396.73,846.328 1397.73,852.689 1398.4,859.093 1398.73,865.523 1398.73,871.962 1398.4,878.392 1397.73,884.796 1396.73,891.157 1395.4,897.458 1393.75,903.681 1391.78,909.81 1389.49,915.828 1386.89,921.719 1383.99,927.468 1380.79,933.058 1377.31,938.475 1373.55,943.704 1369.53,948.73 1365.25,953.541 1360.73,958.124 1355.97,962.465 1351,966.554 1345.82,970.379 1340.45,973.931 1334.9,977.198 1329.19,980.173 1323.33,982.848 1317.34,985.215 1311.24,987.269 1305.04,989.002 1298.76,990.412 1292.41,991.493 1286.01,992.244 1279.59,992.662 1273.15,992.745 1266.72,992.494 1260.3,991.91 1253.93,990.994 1247.61,989.748 1241.37,988.176 1235.21,986.282 1229.17,984.071 1223.24,981.549 1217.46,978.723 1211.83,975.6 1206.36,972.19 1201.09,968.5 1196.01,964.542 1191.14,960.325 1186.5,955.862 1182.1,951.164 1177.95,946.243 1174.05,941.114 1170.43,935.789 1167.09,930.284 1164.04,924.613 1161.29,918.791 1158.85,912.834 1156.72,906.758 1154.9,900.58 1153.41,894.316 1152.25,887.983 1151.41,881.599 1150.91,875.179 1150.75,868.743 " />
<polyline fill="none" vector-effect="none" points="1817.73,1884.7 1855.34,1884.7 " />
<polyline fill="none" vector-effect="none" points="1303.94,659.956 1303.94,622.338 " />
<polyline fill="none" vector-effect="none" points="1028.36,2193.06 1065.97,2193.06 " />
<polyline fill="none" vector-effect="none" points="1028.36,2499.68 1065.97,2499.68 " />
<polyline fill="none" vector-effect="none" points="1855.34,2194.8 1855.34,1884.7 " />
<polyline fill="none" vector-effect="none" points="1855.34,1575.07 1855.34,1264.97 " />
<polyline fill="none" vector-effect="none" points="1028.36,2193.06 1028.36,1886.44 " />
<polyline fill="none" vector-effect="none" points="1028.36,1579.82 1028.36,1273.2 " />
<polyline fill="none" vector-effect="none" points="1028.36,966.576 1028.36,659.956 " />
<polyline fill="none" vector-effect="none" points="1817.73,3124.15 1855.34,3124.15 " />
<polyline fill="none" vector-effect="none" points="1817.73,1884.7 1817.73,1575.07 " />
<polyline fill="none" vector-effect="none" points="1817.73,955.343 1855.34,955.343 " />
<polyline fill="none" vector-effect="none" points="1817.73,2194.8 1855.34,2194.8 " />
<polyline fill="none" vector-effect="none" points="1817.73,2504.43 1817.73,2194.8 " />
<polyline fill="none" vector-effect="none" points="1817.73,2504.43 1855.34,2504.43 " />
<polyline fill="none" vector-effect="none" points="1817.73,1264.97 1817.73,955.343 " />
<polyline fill="none" vector-effect="none" points="1817.73,1264.97 1855.34,1264.97 " />
<polyline fill="none" vector-effect="none" points="1065.97,2499.68 1065.97,2193.06 " />
<polyline fill="none" vector-effect="none" points="1028.36,1886.44 1065.97,1886.44 " />
<polyline fill="none" vector-effect="none" points="1065.97,1273.2 1065.97,966.576 " />
<polyline fill="none" vector-effect="none" points="1065.97,3112.92 1065.97,2806.3 " />
<polyline fill="none" vector-effect="none" points="1028.36,966.576 1065.97,966.576 " />
<polyline fill="none" vector-effect="none" points="1028.36,1273.2 1065.97,1273.2 " />
<polyline fill="none" vector-effect="none" points="4525.01,2925.44 4525.01,2963.05 " />
<polyline fill="none" vector-effect="none" points="4525.01,2963.05 4662.8,2963.05 " />
<polyline fill="none" vector-effect="none" points="4800.71,3102.72 4800.71,2925.44 " />
<polyline fill="none" vector-effect="none" points="4800.71,3457.16 4800.71,3279.88 " />
<polyline fill="none" vector-effect="none" points="4525.01,3457.16 4800.71,3457.16 " />
<polyline fill="none" vector-effect="none" points="4249.43,3457.16 4249.43,3419.54 " />
<polyline fill="none" vector-effect="none" points="3973.72,3457.16 4249.43,3457.16 " />
<polyline fill="none" vector-effect="none" points="3973.72,3457.16 3973.72,3142.09 " />
<polyline fill="none" vector-effect="none" points="3973.72,2827.13 3973.72,2511.89 " />
<polyline fill="none" vector-effect="none" points="4111.72,2649.89 3973.72,2511.89 " />
<polyline fill="none" vector-effect="none" points="4111.72,2649.89 4085.12,2676.49 " />
<polyline fill="none" vector-effect="none" points="4085.12,2676.49 4222.91,2814.28 " />
<polyline fill="none" vector-effect="none" points="4249.51,2787.68 4222.91,2814.28 " />
<polyline fill="none" vector-effect="none" points="4525.01,2925.44 4387.27,2925.44 " />
<polyline fill="none" vector-effect="none" points="4387.27,2925.44 4249.51,2787.68 " />
<polyline fill="none" vector-effect="none" points="4800.71,2925.44 4662.8,2925.44 " />
<polyline fill="none" vector-effect="none" points="4662.8,2925.44 4662.8,2963.05 " />
<polyline fill="none" vector-effect="none" points="4525.01,3419.54 4249.43,3419.54 " />
<polyline fill="none" vector-effect="none" points="4525.01,3457.16 4525.01,3419.54 " />
<polyline fill="none" vector-effect="none" points="4763.1,3102.72 4763.1,3279.88 " />
<polyline fill="none" vector-effect="none" points="4800.71,3279.88 4763.1,3279.88 " />
<polyline fill="none" vector-effect="none" points="4800.71,3102.72 4763.1,3102.72 " />
<polyline fill="none" vector-effect="none" points="4011.34,3142.09 4011.34,2827.13 " />
<polyline fill="none" vector-effect="none" points="3973.72,2827.13 4011.34,2827.13 " />
<polyline fill="none" vector-effect="none" points="3973.72,3142.09 4011.34,3142.09 " />
<polyline fill="none" vector-effect="none" points="114.853,659.956 339.158,659.956 " />
<polyline fill="none" vector-effect="none" points="339.158,622.338 339.158,659.956 " />
<polyline fill="none" vector-effect="none" points="654.348,622.338 339.158,622.338 " />
<polyline fill="none" vector-effect="none" points="654.348,622.338 654.348,659.956 " />
<polyline fill="none" vector-effect="none" points="654.348,659.956 931.684,659.956 " />
<polyline fill="none" vector-effect="none" points="339.158,3457.16 339.158,3419.54 " />
<polyline fill="none" vector-effect="none" points="339.158,3419.54 114.853,3419.54 " />
<polyline fill="none" vector-effect="none" points="931.684,3419.54 654.348,3419.54 " />
<polyline fill="none" vector-effect="none" points="931.684,1886.56 931.684,2192.94 " />
<polyline fill="none" vector-effect="none" points="969.301,2192.94 931.684,2192.94 " />
<polyline fill="none" vector-effect="none" points="969.301,1273.32 931.684,1273.32 " />
<polyline fill="none" vector-effect="none" points="931.684,1273.32 931.684,1579.7 " />
<polyline fill="none" vector-effect="none" points="969.301,1579.7 931.684,1579.7 " />
<polyline fill="none" vector-effect="none" points="654.348,3457.16 654.348,3419.54 " />
<polyline fill="none" vector-effect="none" points="654.348,3457.16 339.158,3457.16 " />
<polyline fill="none" vector-effect="none" points="24.2039,1273.32 114.853,1273.32 " />
<polyline fill="none" vector-effect="none" points="24.2039,2499.8 24.2039,2192.94 " />
<polyline fill="none" vector-effect="none" points="24.2039,1886.56 24.2039,1579.7 " />
<polyline fill="none" vector-effect="none" points="24.2039,1273.32 24.2039,966.458 " />
<polyline fill="none" vector-effect="none" points="24.2039,3113.04 24.2039,2806.18 " />
<polyline fill="none" vector-effect="none" points="969.301,1273.32 969.301,966.458 " />
<polyline fill="none" vector-effect="none" points="969.301,3113.04 969.301,2806.18 " />
<polyline fill="none" vector-effect="none" points="969.301,2499.8 969.301,2192.94 " />
<polyline fill="none" vector-effect="none" points="24.2039,966.458 114.853,966.458 " />
<polyline fill="none" vector-effect="none" points="24.2039,2192.94 114.853,2192.94 " />
<polyline fill="none" vector-effect="none" points="114.853,2192.94 114.853,1886.56 " />
<polyline fill="none" vector-effect="none" points="24.2039,1886.56 114.853,1886.56 " />
<polyline fill="none" vector-effect="none" points="24.2039,1579.7 114.853,1579.7 " />
<polyline fill="none" vector-effect="none" points="114.853,1579.7 114.853,1273.32 " />
<polyline fill="none" vector-effect="none" points="969.301,2806.18 931.684,2806.18 " />
<polyline fill="none" vector-effect="none" points="114.853,3419.54 114.853,3113.04 " />
<polyline fill="none" vector-effect="none" points="24.2039,3113.04 114.853,3113.04 " />
<polyline fill="none" vector-effect="none" points="931.684,659.956 931.684,966.458 " />
<polyline fill="none" vector-effect="none" points="969.301,966.458 931.684,966.458 " />
<polyline fill="none" vector-effect="none" points="969.301,3113.04 931.684,3113.04 " />
<polyline fill="none" vector-effect="none" points="969.301,2499.8 931.684,2499.8 " />
<polyline fill="none" vector-effect="none" points="931.684,3113.04 931.684,3419.54 " />
<polyline fill="none" vector-effect="none" points="969.301,1886.56 969.301,1579.7 " />
<polyline fill="none" vector-effect="none" points="931.684,2499.8 931.684,2806.18 " />
<polyline fill="none" vector-effect="none" points="114.853,966.458 114.853,659.956 " />
<polyline fill="none" vector-effect="none" points="24.2039,2499.8 114.853,2499.8 " />
<polyline fill="none" vector-effect="none" points="114.853,2806.18 114.853,2499.8 " />
<polyline fill="none" vector-effect="none" points="24.2039,2806.18 114.853,2806.18 " />
<polyline fill="none" vector-effect="none" points="969.301,1886.56 931.684,1886.56 " />
<polyline fill="none" vector-effect="none" points="2499.12,955.343 2499.12,1264.97 " />
<polyline fill="none" vector-effect="none" points="2546.36,1264.97 2499.12,1264.97 " />
<polyline fill="none" vector-effect="none" points="2546.36,1264.97 2546.36,1575.07 " />
<polyline fill="none" vector-effect="none" points="2546.36,1575.07 2499.12,1575.07 " />
<polyline fill="none" vector-effect="none" points="2499.12,1575.07 2499.12,1884.7 " />
<polyline fill="none" vector-effect="none" points="2546.36,1884.7 2499.12,1884.7 " />
<polyline fill="none" vector-effect="none" points="2546.36,1884.7 2546.36,2194.8 " />
<polyline fill="none" vector-effect="none" points="2546.36,2194.8 2499.12,2194.8 " />
<polyline fill="none" vector-effect="none" points="2499.12,2194.8 2499.12,2504.43 " />
<polyline fill="none" vector-effect="none" points="2546.36,2504.43 2499.12,2504.43 " />
<polyline fill="none" vector-effect="none" points="2546.36,2504.43 2546.36,2814.53 " />
<polyline fill="none" vector-effect="none" points="2546.36,2814.53 2499.12,2814.53 " />
<polyline fill="none" vector-effect="none" points="2499.12,2814.53 2499.12,3124.15 " />
<polyline fill="none" vector-effect="none" points="2546.36,3124.15 2499.12,3124.15 " />
<polyline fill="none" vector-effect="none" points="2546.36,3124.15 2546.36,3419.54 " />
<polyline fill="none" vector-effect="none" points="2304.37,3419.54 2546.36,3419.54 " />
<polyline fill="none" vector-effect="none" points="2304.37,3419.54 2304.37,3457.16 " />
<polyline fill="none" vector-effect="none" points="2304.37,3457.16 2109.27,3457.16 " />
<polyline fill="none" vector-effect="none" points="2109.27,3419.54 2109.27,3457.16 " />
<polyline fill="none" vector-effect="none" points="1914.4,3419.54 2109.27,3419.54 " />
<polyline fill="none" vector-effect="none" points="1914.4,3112.92 2005.05,3112.92 " />
<polyline fill="none" vector-effect="none" points="2005.05,3112.92 2005.05,2806.3 " />
<polyline fill="none" vector-effect="none" points="1914.4,2806.3 2005.05,2806.3 " />
<polyline fill="none" vector-effect="none" points="1914.4,2499.68 1914.4,2806.3 " />
<polyline fill="none" vector-effect="none" points="1914.4,2499.68 2005.05,2499.68 " />
<polyline fill="none" vector-effect="none" points="2005.05,2499.68 2005.05,2193.06 " />
<polyline fill="none" vector-effect="none" points="1914.4,2193.06 2005.05,2193.06 " />
<polyline fill="none" vector-effect="none" points="1914.4,1886.44 2005.05,1886.44 " />
<polyline fill="none" vector-effect="none" points="2005.05,1886.44 2005.05,1579.82 " />
<polyline fill="none" vector-effect="none" points="1914.4,1579.82 2005.05,1579.82 " />
<polyline fill="none" vector-effect="none" points="1914.4,1273.2 1914.4,1579.82 " />
<polyline fill="none" vector-effect="none" points="1914.4,1273.2 2005.05,1273.2 " />
<polyline fill="none" vector-effect="none" points="2005.05,1273.2 2005.05,966.576 " />
<polyline fill="none" vector-effect="none" points="1914.4,966.576 2005.05,966.576 " />
<polyline fill="none" vector-effect="none" points="1914.4,659.956 1914.4,966.576 " />
<polyline fill="none" vector-effect="none" points="2109.27,659.956 2109.27,622.338 " />
<polyline fill="none" vector-effect="none" points="2304.37,622.338 2109.27,622.338 " />
<polyline fill="none" vector-effect="none" points="2304.37,659.956 2304.37,622.338 " />
<polyline fill="none" vector-effect="none" points="2546.36,659.956 2304.37,659.956 " />
<polyline fill="none" vector-effect="none" points="2546.36,659.956 2546.36,955.343 " />
<polyline fill="none" vector-effect="none" points="2546.36,955.343 2499.12,955.343 " />
<polyline fill="none" vector-effect="none" points="1914.4,3112.92 1914.4,3419.54 " />
<polyline fill="none" vector-effect="none" points="1914.4,1886.44 1914.4,2193.06 " />
<polyline fill="none" vector-effect="none" points="2109.27,659.956 1914.4,659.956 " />
<polyline fill="none" vector-effect="none" points="4363.6,1773.44 4363.43,1767 4362.93,1760.58 4362.1,1754.2 4360.93,1747.86 4359.44,1741.6 4357.63,1735.42 4355.49,1729.34 4353.05,1723.39 4350.3,1717.57 4347.25,1711.89 4343.91,1706.39 4340.29,1701.06 4336.4,1695.94 4332.24,1691.01 4327.84,1686.32 4323.2,1681.85 4318.33,1677.64 4313.26,1673.68 4307.98,1669.99 4302.52,1666.58 4296.89,1663.46 4291.1,1660.63 4285.18,1658.11 4279.13,1655.9 4272.98,1654 4266.73,1652.43 4260.41,1651.18 4254.04,1650.27 4247.63,1649.68 4241.19,1649.43 4234.76,1649.52 4228.33,1649.93 4221.94,1650.69 4215.59,1651.77 4209.31,1653.18 4203.1,1654.91 4197,1656.96 4191.01,1659.33 4185.16,1662.01 4179.45,1664.98 4173.9,1668.25 4168.53,1671.8 4163.35,1675.62 4158.37,1679.71 4153.62,1684.05 4149.09,1688.64 4144.81,1693.45 4140.79,1698.47 4137.03,1703.7 4133.55,1709.12 4130.36,1714.71 4127.46,1720.46 4124.86,1726.35 4122.57,1732.37 4120.59,1738.5 4118.94,1744.72 4117.61,1751.02 4116.61,1757.38 4115.95,1763.79 4115.61,1770.22 4115.61,1776.66 4115.95,1783.09 4116.61,1789.49 4117.61,1795.85 4118.94,1802.15 4120.59,1808.37 4122.57,1814.5 4124.86,1820.52 4127.46,1826.41 4130.36,1832.16 4133.55,1837.75 4137.03,1843.17 4140.79,1848.4 4144.81,1853.42 4149.09,1858.23 4153.62,1862.82 4158.37,1867.16 4163.35,1871.25 4168.53,1875.07 4173.9,1878.62 4179.45,1881.89 4185.16,1884.87 4191.01,1887.54 4197,1889.91 4203.1,1891.96 4209.31,1893.7 4215.59,1895.11 4221.94,1896.19 4228.33,1896.94 4234.76,1897.35 4241.19,1897.44 4247.63,1897.19 4254.04,1896.6 4260.41,1895.69 4266.73,1894.44 4272.98,1892.87 4279.13,1890.97 4285.18,1888.76 4291.1,1886.24 4296.89,1883.42 4302.52,1880.29 4307.98,1876.88 4313.26,1873.19 4318.33,1869.24 4323.2,1865.02 4327.84,1860.56 4332.24,1855.86 4336.4,1850.94 4340.29,1845.81 4343.91,1840.48 4347.25,1834.98 4350.3,1829.31 4353.05,1823.48 4355.49,1817.53 4357.63,1811.45 4359.44,1805.27 4360.93,1799.01 4362.1,1792.68 4362.93,1786.29 4363.43,1779.87 4363.6,1773.44 " />
<polyline fill="none" vector-effect="none" points="4688.39,1773.44 4688.22,1767.79 4687.72,1762.15 4686.87,1756.56 4685.7,1751.04 4684.2,1745.59 4682.37,1740.24 4680.22,1735 4677.77,1729.91 4675.02,1724.97 4671.98,1720.21 4668.65,1715.64 4665.06,1711.27 4661.22,1707.13 4657.13,1703.22 4652.82,1699.56 4648.29,1696.17 4643.58,1693.06 4638.68,1690.23 4633.63,1687.7 4628.43,1685.48 4623.1,1683.57 4617.68,1681.99 4612.17,1680.73 4606.59,1679.8 4600.97,1679.21 4595.32,1678.96 4589.67,1679.04 4584.03,1679.47 4578.43,1680.23 4572.88,1681.32 4567.41,1682.74 4562.03,1684.49 4556.77,1686.55 4551.64,1688.93 4546.66,1691.61 4541.85,1694.58 4537.23,1697.83 4532.81,1701.36 4528.61,1705.14 4524.64,1709.17 4520.92,1713.43 4517.47,1717.9 4514.28,1722.57 4511.38,1727.42 4508.78,1732.44 4506.48,1737.6 4504.49,1742.9 4502.83,1748.3 4501.49,1753.79 4500.48,1759.35 4499.8,1764.97 4499.46,1770.61 4499.46,1776.26 4499.8,1781.91 4500.48,1787.52 4501.49,1793.08 4502.83,1798.57 4504.49,1803.97 4506.48,1809.27 4508.78,1814.43 4511.38,1819.45 4514.28,1824.3 4517.47,1828.97 4520.92,1833.45 4524.64,1837.7 4528.61,1841.73 4532.81,1845.51 4537.23,1849.04 4541.85,1852.29 4546.66,1855.26 4551.64,1857.94 4556.77,1860.32 4562.03,1862.38 4567.41,1864.13 4572.88,1865.55 4578.43,1866.65 4584.03,1867.4 4589.67,1867.83 4595.32,1867.91 4600.97,1867.66 4606.59,1867.07 4612.17,1866.14 4617.68,1864.88 4623.1,1863.3 4628.43,1861.39 4633.63,1859.17 4638.68,1856.64 4643.58,1853.81 4648.29,1850.7 4652.82,1847.31 4657.13,1843.65 4661.22,1839.75 4665.06,1835.6 4668.65,1831.24 4671.98,1826.66 4675.02,1821.9 4677.77,1816.96 4680.22,1811.87 4682.37,1806.64 4684.2,1801.29 4685.7,1795.84 4686.87,1790.31 4687.72,1784.72 4688.22,1779.09 4688.39,1773.44 " />
<polyline fill="none" vector-effect="none" points="4763.1,1684.86 4763.1,1862.02 " />
<polyline fill="none" vector-effect="none" points="4800.71,1862.02 4763.1,1862.02 " />
<polyline fill="none" vector-effect="none" points="4800.71,1862.02 4800.71,2039.3 " />
<polyline fill="none" vector-effect="none" points="4800.71,2039.3 4662.8,2039.3 " />
<polyline fill="none" vector-effect="none" points="4662.8,2001.68 4525.01,2001.68 " />
<polyline fill="none" vector-effect="none" points="4525.01,2039.3 4525.01,2001.68 " />
<polyline fill="none" vector-effect="none" points="4525.01,2039.3 4387.27,2039.3 " />
<polyline fill="none" vector-effect="none" points="4387.27,2039.3 4249.51,2177.05 " />
<polyline fill="none" vector-effect="none" points="4249.51,2177.05 4222.91,2150.45 " />
<polyline fill="none" vector-effect="none" points="4222.91,2150.45 4085.12,2288.25 " />
<polyline fill="none" vector-effect="none" points="4111.72,2314.85 4085.12,2288.25 " />
<polyline fill="none" vector-effect="none" points="4111.72,2314.85 3973.72,2452.84 " />
<polyline fill="none" vector-effect="none" points="3973.72,2137.6 3973.72,2452.84 " />
<polyline fill="none" vector-effect="none" points="3973.72,2137.6 4011.34,2137.6 " />
<polyline fill="none" vector-effect="none" points="4011.34,2137.6 4011.34,1822.65 " />
<polyline fill="none" vector-effect="none" points="3973.72,1822.65 4011.34,1822.65 " />
<polyline fill="none" vector-effect="none" points="3973.72,1507.58 3973.72,1822.65 " />
<polyline fill="none" vector-effect="none" points="3973.72,1507.58 4249.43,1507.58 " />
<polyline fill="none" vector-effect="none" points="4249.43,1507.58 4249.43,1545.19 " />
<polyline fill="none" vector-effect="none" points="4249.43,1545.19 4525.01,1545.19 " />
<polyline fill="none" vector-effect="none" points="4525.01,1507.58 4525.01,1545.19 " />
<polyline fill="none" vector-effect="none" points="4525.01,1507.58 4800.71,1507.58 " />
<polyline fill="none" vector-effect="none" points="4800.71,1507.58 4800.71,1684.86 " />
<polyline fill="none" vector-effect="none" points="4800.71,1684.86 4763.1,1684.86 " />
<polyline fill="none" vector-effect="none" points="4662.8,2039.3 4662.8,2001.68 " />
<polyline fill="none" vector-effect="none" points="2723.64,799.618 2723.64,1153.94 " />
<polyline fill="none" vector-effect="none" points="2900.8,1153.94 2723.64,1153.94 " />
<polyline fill="none" vector-effect="none" points="2900.8,799.618 2900.8,1153.94 " />
<polyline fill="none" vector-effect="none" points="2900.8,799.618 2723.64,799.618 " />
<polyline fill="none" vector-effect="none" points="2723.64,1862.59 2723.64,2216.91 " />
<polyline fill="none" vector-effect="none" points="2900.8,2216.91 2723.64,2216.91 " />
<polyline fill="none" vector-effect="none" points="2900.8,1862.59 2900.8,2216.91 " />
<polyline fill="none" vector-effect="none" points="2900.8,1862.59 2723.64,1862.59 " />
<polyline fill="none" vector-effect="none" points="2900.8,2394.07 2900.8,2748.39 " />
<polyline fill="none" vector-effect="none" points="2900.8,2394.07 2723.64,2394.07 " />
<polyline fill="none" vector-effect="none" points="2723.64,2925.56 2723.64,3279.88 " />
<polyline fill="none" vector-effect="none" points="2900.8,3279.88 2723.64,3279.88 " />
<polyline fill="none" vector-effect="none" points="2900.8,2925.56 2900.8,3279.88 " />
<polyline fill="none" vector-effect="none" points="2723.64,1331.1 2723.64,1685.43 " />
<polyline fill="none" vector-effect="none" points="2900.8,1685.43 2723.64,1685.43 " />
<polyline fill="none" vector-effect="none" points="2900.8,1331.1 2900.8,1685.43 " />
<polyline fill="none" vector-effect="none" points="2900.8,1331.1 2723.64,1331.1 " />
<polyline fill="none" vector-effect="none" points="3019.03,1265.09 3019.03,955.225 " />
<polyline fill="none" vector-effect="none" points="2985.51,1265.09 3019.03,1265.09 " />
<polyline fill="none" vector-effect="none" points="2985.51,1574.95 2985.51,1265.09 " />
<polyline fill="none" vector-effect="none" points="2985.51,1574.95 3019.03,1574.95 " />
<polyline fill="none" vector-effect="none" points="3019.03,1884.82 3019.03,1574.95 " />
<polyline fill="none" vector-effect="none" points="2985.51,1884.82 3019.03,1884.82 " />
<polyline fill="none" vector-effect="none" points="2985.51,2194.68 2985.51,1884.82 " />
<polyline fill="none" vector-effect="none" points="2985.51,2194.68 3019.03,2194.68 " />
<polyline fill="none" vector-effect="none" points="3019.03,2504.54 3019.03,2194.68 " />
<polyline fill="none" vector-effect="none" points="2985.51,2504.54 3019.03,2504.54 " />
<polyline fill="none" vector-effect="none" points="2985.51,2814.41 2985.51,2504.54 " />
<polyline fill="none" vector-effect="none" points="2985.51,2814.41 3019.03,2814.41 " />
<polyline fill="none" vector-effect="none" points="3019.03,3124.27 3019.03,2814.41 " />
<polyline fill="none" vector-effect="none" points="2985.51,3124.27 3019.03,3124.27 " />
<polyline fill="none" vector-effect="none" points="2985.51,3419.54 2985.51,3124.27 " />
<polyline fill="none" vector-effect="none" points="2743.21,3457.16 2881.24,3457.16 " />
<polyline fill="none" vector-effect="none" points="2605.42,3419.54 2743.21,3419.54 " />
<polyline fill="none" vector-effect="none" points="2605.42,3419.54 2605.42,3112.92 " />
<polyline fill="none" vector-effect="none" points="2605.42,3112.92 2643.03,3112.92 " />
<polyline fill="none" vector-effect="none" points="2643.03,3112.92 2643.03,2806.3 " />
<polyline fill="none" vector-effect="none" points="2605.42,2806.3 2643.03,2806.3 " />
<polyline fill="none" vector-effect="none" points="2605.42,2499.68 2643.03,2499.68 " />
<polyline fill="none" vector-effect="none" points="2605.42,1886.44 2643.03,1886.44 " />
<polyline fill="none" vector-effect="none" points="2643.03,1886.44 2643.03,1579.82 " />
<polyline fill="none" vector-effect="none" points="2605.42,1579.82 2643.03,1579.82 " />
<polyline fill="none" vector-effect="none" points="2605.42,1273.2 2643.03,1273.2 " />
<polyline fill="none" vector-effect="none" points="2643.03,1273.2 2643.03,966.576 " />
<polyline fill="none" vector-effect="none" points="2605.42,966.576 2643.03,966.576 " />
<polyline fill="none" vector-effect="none" points="2743.21,622.338 2881.24,622.338 " />
<polyline fill="none" vector-effect="none" points="2985.51,955.225 2985.51,659.956 " />
<polyline fill="none" vector-effect="none" points="2985.51,955.225 3019.03,955.225 " />
<polyline fill="none" vector-effect="none" points="2743.21,3419.54 2743.21,3457.16 " />
<polyline fill="none" vector-effect="none" points="2723.64,2394.07 2723.64,2748.39 " />
<polyline fill="none" vector-effect="none" points="2900.8,2748.39 2723.64,2748.39 " />
<polyline fill="none" vector-effect="none" points="2985.51,659.956 2881.24,659.956 " />
<polyline fill="none" vector-effect="none" points="2900.8,2925.56 2723.64,2925.56 " />
<polyline fill="none" vector-effect="none" points="2743.21,659.956 2743.21,622.338 " />
<polyline fill="none" vector-effect="none" points="2643.03,2499.68 2643.03,2193.06 " />
<polyline fill="none" vector-effect="none" points="2605.42,2193.06 2643.03,2193.06 " />
<polyline fill="none" vector-effect="none" points="2605.42,2193.06 2605.42,1886.44 " />
<polyline fill="none" vector-effect="none" points="2743.21,659.956 2605.42,659.956 " />
<polyline fill="none" vector-effect="none" points="2881.24,3419.54 2985.51,3419.54 " />
<polyline fill="none" vector-effect="none" points="2881.24,659.956 2881.24,622.338 " />
<polyline fill="none" vector-effect="none" points="2605.42,966.576 2605.42,659.956 " />
<polyline fill="none" vector-effect="none" points="2605.42,2806.3 2605.42,2499.68 " />
<polyline fill="none" vector-effect="none" points="2605.42,1579.82 2605.42,1273.2 " />
<polyline fill="none" vector-effect="none" points="2881.24,3419.54 2881.24,3457.16 " />
</g>

<g fill="none" stroke="#000000" stroke-opacity="1" stroke-width="1" stroke-linecap="square" stroke-linejoin="bevel" transform="matrix(1,0,0,1,0,0)"
font-family="Arial" font-size="12" font-weight="400" font-style="normal" 
>
</g>
</g>
</svg>
