<?xml version="1.0" encoding="UTF-8" standalone="no"?>
<svg width="450.003mm" height="299.974mm"
 viewBox="0 0 5315 3543"
 xmlns="http://www.w3.org/2000/svg" xmlns:xlink="http://www.w3.org/1999/xlink"  version="1.2" baseProfile="tiny">
<defs>
</defs>
<g fill="none" stroke="black" stroke-width="1" fill-rule="evenodd" stroke-linecap="square" stroke-linejoin="bevel" >

<g fill="#ffffff" fill-opacity="1" stroke="none" transform="matrix(1,0,0,1,0,0)"
font-family="Arial" font-size="12" font-weight="400" font-style="normal" 
>
<rect x="0" y="0" width="5315" height="3543"/>
</g>

<g fill="none" stroke="#000000" stroke-opacity="1" stroke-width="1" stroke-linecap="square" stroke-linejoin="bevel" transform="matrix(1,0,0,1,0,0)"
font-family="Arial" font-size="12" font-weight="400" font-style="normal" 
>
</g>

<g fill="#000000" fill-opacity="1" stroke="#000000" stroke-opacity="1" stroke-width="1" stroke-linecap="butt" stroke-linejoin="miter" stroke-miterlimit="2" transform="matrix(1,0,0,1,0,0)"
font-family="Arial" font-size="12" font-weight="400" font-style="normal" 
>
</g>

<g fill="#000000" fill-opacity="1" stroke="#000000" stroke-opacity="1" stroke-width="5" stroke-linecap="round" stroke-linejoin="bevel" transform="matrix(1,0,0,1,0,0)"
font-family="Arial" font-size="12" font-weight="400" font-style="normal" 
>
<polyline fill="none" vector-effect="none" points="294.329,308.771 294.498,303.12 295.005,297.49 295.848,291.901 297.023,286.371 298.527,280.922 300.354,275.573 302.498,270.342 304.95,265.249 307.703,260.312 310.746,255.548 314.069,250.975 317.659,246.609 321.504,242.465 325.59,238.558 329.902,234.903 334.425,231.513 339.143,228.398 344.038,225.572 349.094,223.043 354.292,220.822 359.613,218.915 365.039,217.33 370.55,216.072 376.127,215.146 381.749,214.555 387.396,214.301 393.048,214.386 398.685,214.808 404.287,215.567 409.833,216.66 415.304,218.082 420.68,219.828 425.942,221.894 431.071,224.27 436.049,226.949 440.858,229.92 445.48,233.174 449.9,236.699 454.101,240.481 458.068,244.508 461.787,248.765 465.245,253.237 468.43,257.907 471.329,262.76 473.933,267.777 476.232,272.941 478.218,278.234 479.885,283.636 481.225,289.127 482.234,294.689 482.909,300.302 483.247,305.944 483.247,311.597 482.909,317.24 482.234,322.852 481.225,328.414 479.885,333.906 478.218,339.308 476.232,344.6 473.933,349.764 471.329,354.781 468.43,359.634 465.245,364.305 461.787,368.776 458.068,373.033 454.101,377.06 449.9,380.843 445.48,384.367 440.858,387.621 436.049,390.593 431.071,393.271 425.942,395.648 420.68,397.713 415.304,399.46 409.833,400.882 404.287,401.974 398.685,402.733 393.048,403.156 387.396,403.24 381.749,402.987 376.127,402.396 370.55,401.47 365.039,400.212 359.613,398.627 354.292,396.72 349.094,394.498 344.038,391.969 339.143,389.143 334.425,386.029 329.902,382.638 325.59,378.983 321.504,375.077 317.659,370.933 314.069,366.566 310.746,361.993 307.703,357.229 304.95,352.292 302.498,347.199 300.354,341.969 298.527,336.619 297.023,331.17 295.848,325.641 295.005,320.051 294.498,314.421 294.329,308.771 " />
<polyline fill="none" vector-effect="none" points="825.779,308.771 825.948,303.12 826.455,297.49 827.298,291.901 828.473,286.371 829.977,280.922 831.804,275.573 833.948,270.342 836.4,265.249 839.153,260.312 842.196,255.548 845.519,250.975 849.109,246.609 852.954,242.465 857.04,238.558 861.352,234.903 865.875,231.513 870.593,228.398 875.488,225.572 880.544,223.043 885.742,220.822 891.063,218.915 896.489,217.33 902,216.072 907.577,215.146 913.199,214.555 918.846,214.301 924.498,214.386 930.135,214.808 935.737,215.567 941.283,216.66 946.754,218.082 952.13,219.828 957.392,221.894 962.521,224.27 967.499,226.949 972.308,229.92 976.93,233.174 981.35,236.699 985.551,240.481 989.518,244.508 993.237,248.765 996.695,253.237 999.88,257.907 1002.78,262.76 1005.38,267.777 1007.68,272.941 1009.67,278.234 1011.33,283.636 1012.67,289.127 1013.68,294.689 1014.36,300.302 1014.7,305.944 1014.7,311.597 1014.36,317.24 1013.68,322.852 1012.67,328.414 1011.33,333.906 1009.67,339.308 1007.68,344.6 1005.38,349.764 1002.78,354.781 999.88,359.634 996.695,364.305 993.237,368.776 989.518,373.033 985.551,377.06 981.35,380.843 976.93,384.367 972.308,387.621 967.499,390.593 962.521,393.271 957.392,395.648 952.13,397.713 946.754,399.46 941.283,400.882 935.737,401.974 930.135,402.733 924.498,403.156 918.846,403.24 913.199,402.987 907.577,402.396 902,401.47 896.489,400.212 891.063,398.627 885.742,396.72 880.544,394.498 875.488,391.969 870.593,389.143 865.875,386.029 861.352,382.638 857.04,378.983 852.954,375.077 849.109,370.933 845.519,366.566 842.196,361.993 839.153,357.229 836.4,352.292 833.948,347.199 831.804,341.969 829.977,336.619 828.473,331.17 827.298,325.641 826.455,320.051 825.948,314.421 825.779,308.771 " />
<polyline fill="none" vector-effect="none" points="1357.23,308.771 1357.4,303.12 1357.91,297.49 1358.75,291.901 1359.92,286.371 1361.43,280.922 1363.25,275.573 1365.4,270.342 1367.85,265.249 1370.6,260.312 1373.65,255.548 1376.97,250.975 1380.56,246.609 1384.4,242.465 1388.49,238.558 1392.8,234.903 1397.32,231.513 1402.04,228.398 1406.94,225.572 1411.99,223.043 1417.19,220.822 1422.51,218.915 1427.94,217.33 1433.45,216.072 1439.03,215.146 1444.65,214.555 1450.3,214.301 1455.95,214.386 1461.59,214.808 1467.19,215.567 1472.73,216.66 1478.2,218.082 1483.58,219.828 1488.84,221.894 1493.97,224.27 1498.95,226.949 1503.76,229.92 1508.38,233.174 1512.8,236.699 1517,240.481 1520.97,244.508 1524.69,248.765 1528.15,253.237 1531.33,257.907 1534.23,262.76 1536.83,267.777 1539.13,272.941 1541.12,278.234 1542.78,283.636 1544.12,289.127 1545.13,294.689 1545.81,300.302 1546.15,305.944 1546.15,311.597 1545.81,317.24 1545.13,322.852 1544.12,328.414 1542.78,333.906 1541.12,339.308 1539.13,344.6 1536.83,349.764 1534.23,354.781 1531.33,359.634 1528.15,364.305 1524.69,368.776 1520.97,373.033 1517,377.06 1512.8,380.843 1508.38,384.367 1503.76,387.621 1498.95,390.593 1493.97,393.271 1488.84,395.648 1483.58,397.713 1478.2,399.46 1472.73,400.882 1467.19,401.974 1461.59,402.733 1455.95,403.156 1450.3,403.24 1444.65,402.987 1439.03,402.396 1433.45,401.47 1427.94,400.212 1422.51,398.627 1417.19,396.72 1411.99,394.498 1406.94,391.969 1402.04,389.143 1397.32,386.029 1392.8,382.638 1388.49,378.983 1384.4,375.077 1380.56,370.933 1376.97,366.566 1373.65,361.993 1370.6,357.229 1367.85,352.292 1365.4,347.199 1363.25,341.969 1361.43,336.619 1359.92,331.17 1358.75,325.641 1357.91,320.051 1357.4,314.421 1357.23,308.771 " />
<polyline fill="none" vector-effect="none" points="1888.68,308.771 1888.85,303.12 1889.36,297.49 1890.2,291.901 1891.37,286.371 1892.88,280.922 1894.7,275.573 1896.85,270.342 1899.3,265.249 1902.05,260.312 1905.1,255.548 1908.42,250.975 1912.01,246.609 1915.85,242.465 1919.94,238.558 1924.25,234.903 1928.77,231.513 1933.49,228.398 1938.39,225.572 1943.44,223.043 1948.64,220.822 1953.96,218.915 1959.39,217.33 1964.9,216.072 1970.48,215.146 1976.1,214.555 1981.75,214.301 1987.4,214.386 1993.04,214.808 1998.64,215.567 2004.18,216.66 2009.65,218.082 2015.03,219.828 2020.29,221.894 2025.42,224.27 2030.4,226.949 2035.21,229.92 2039.83,233.174 2044.25,236.699 2048.45,240.481 2052.42,244.508 2056.14,248.765 2059.6,253.237 2062.78,257.907 2065.68,262.76 2068.28,267.777 2070.58,272.941 2072.57,278.234 2074.23,283.636 2075.57,289.127 2076.58,294.689 2077.26,300.302 2077.6,305.944 2077.6,311.597 2077.26,317.24 2076.58,322.852 2075.57,328.414 2074.23,333.906 2072.57,339.308 2070.58,344.6 2068.28,349.764 2065.68,354.781 2062.78,359.634 2059.6,364.305 2056.14,368.776 2052.42,373.033 2048.45,377.06 2044.25,380.843 2039.83,384.367 2035.21,387.621 2030.4,390.593 2025.42,393.271 2020.29,395.648 2015.03,397.713 2009.65,399.46 2004.18,400.882 1998.64,401.974 1993.04,402.733 1987.4,403.156 1981.75,403.24 1976.1,402.987 1970.48,402.396 1964.9,401.47 1959.39,400.212 1953.96,398.627 1948.64,396.72 1943.44,394.498 1938.39,391.969 1933.49,389.143 1928.77,386.029 1924.25,382.638 1919.94,378.983 1915.85,375.077 1912.01,370.933 1908.42,366.566 1905.1,361.993 1902.05,357.229 1899.3,352.292 1896.85,347.199 1894.7,341.969 1892.88,336.619 1891.37,331.17 1890.2,325.641 1889.36,320.051 1888.85,314.421 1888.68,308.771 " />
<polyline fill="none" vector-effect="none" points="2420.13,308.771 2420.3,303.12 2420.81,297.49 2421.65,291.901 2422.82,286.371 2424.33,280.922 2426.15,275.573 2428.3,270.342 2430.75,265.249 2433.5,260.312 2436.55,255.548 2439.87,250.975 2443.46,246.609 2447.3,242.465 2451.39,238.558 2455.7,234.903 2460.22,231.513 2464.94,228.398 2469.84,225.572 2474.89,223.043 2480.09,220.822 2485.41,218.915 2490.84,217.33 2496.35,216.072 2501.93,215.146 2507.55,214.555 2513.2,214.301 2518.85,214.386 2524.49,214.808 2530.09,215.567 2535.63,216.66 2541.1,218.082 2546.48,219.828 2551.74,221.894 2556.87,224.27 2561.85,226.949 2566.66,229.92 2571.28,233.174 2575.7,236.699 2579.9,240.481 2583.87,244.508 2587.59,248.765 2591.05,253.237 2594.23,257.907 2597.13,262.76 2599.73,267.777 2602.03,272.941 2604.02,278.234 2605.68,283.636 2607.02,289.127 2608.03,294.689 2608.71,300.302 2609.05,305.944 2609.05,311.597 2608.71,317.24 2608.03,322.852 2607.02,328.414 2605.68,333.906 2604.02,339.308 2602.03,344.6 2599.73,349.764 2597.13,354.781 2594.23,359.634 2591.05,364.305 2587.59,368.776 2583.87,373.033 2579.9,377.06 2575.7,380.843 2571.28,384.367 2566.66,387.621 2561.85,390.593 2556.87,393.271 2551.74,395.648 2546.48,397.713 2541.1,399.46 2535.63,400.882 2530.09,401.974 2524.49,402.733 2518.85,403.156 2513.2,403.24 2507.55,402.987 2501.93,402.396 2496.35,401.47 2490.84,400.212 2485.41,398.627 2480.09,396.72 2474.89,394.498 2469.84,391.969 2464.94,389.143 2460.22,386.029 2455.7,382.638 2451.39,378.983 2447.3,375.077 2443.46,370.933 2439.87,366.566 2436.55,361.993 2433.5,357.229 2430.75,352.292 2428.3,347.199 2426.15,341.969 2424.33,336.619 2422.82,331.17 2421.65,325.641 2420.81,320.051 2420.3,314.421 2420.13,308.771 " />
<polyline fill="none" vector-effect="none" points="2218.09,574.614 2524.93,574.614 " />
<polyline fill="none" vector-effect="none" points="2218.09,536.999 2218.09,574.614 " />
<polyline fill="none" vector-effect="none" points="1911.73,536.999 2218.09,536.999 " />
<polyline fill="none" vector-effect="none" points="1911.73,536.999 1911.73,574.614 " />
<polyline fill="none" vector-effect="none" points="1604.89,574.614 1911.73,574.614 " />
<polyline fill="none" vector-effect="none" points="1604.89,536.999 1604.89,574.614 " />
<polyline fill="none" vector-effect="none" points="1298.53,536.999 1604.89,536.999 " />
<polyline fill="none" vector-effect="none" points="1298.53,536.999 1298.53,574.614 " />
<polyline fill="none" vector-effect="none" points="991.69,574.614 1298.53,574.614 " />
<polyline fill="none" vector-effect="none" points="991.69,536.999 991.69,574.614 " />
<polyline fill="none" vector-effect="none" points="685.326,536.999 991.69,536.999 " />
<polyline fill="none" vector-effect="none" points="685.326,536.999 685.326,574.614 " />
<polyline fill="none" vector-effect="none" points="378.489,574.614 685.326,574.614 " />
<polyline fill="none" vector-effect="none" points="378.489,536.999 378.489,574.614 " />
<polyline fill="none" vector-effect="none" points="72.006,536.999 378.489,536.999 " />
<polyline fill="none" vector-effect="none" points="72.006,397.464 72.006,536.999 " />
<polyline fill="none" vector-effect="none" points="72.006,397.464 34.3912,397.464 " />
<polyline fill="none" vector-effect="none" points="34.3912,220.078 34.3912,397.464 " />
<polyline fill="none" vector-effect="none" points="72.006,220.078 34.3912,220.078 " />
<polyline fill="none" vector-effect="none" points="2831.41,220.078 2831.41,80.5424 " />
<polyline fill="none" vector-effect="none" points="2831.41,220.078 2869.03,220.078 " />
<polyline fill="none" vector-effect="none" points="2869.03,220.078 2869.03,397.464 " />
<polyline fill="none" vector-effect="none" points="2831.41,397.464 2869.03,397.464 " />
<polyline fill="none" vector-effect="none" points="2831.41,536.999 2831.41,397.464 " />
<polyline fill="none" vector-effect="none" points="2524.93,536.999 2831.41,536.999 " />
<polyline fill="none" vector-effect="none" points="2524.93,536.999 2524.93,574.614 " />
<polyline fill="none" vector-effect="none" points="2226.32,42.9276 2536.16,42.9276 " />
<polyline fill="none" vector-effect="none" points="367.256,42.9276 677.1,42.9276 " />
<polyline fill="none" vector-effect="none" points="986.944,42.9276 1296.79,42.9276 " />
<polyline fill="none" vector-effect="none" points="2536.16,80.5424 2831.41,80.5424 " />
<polyline fill="none" vector-effect="none" points="2536.16,42.9276 2536.16,80.5424 " />
<polyline fill="none" vector-effect="none" points="1606.63,42.9276 1916.47,42.9276 " />
<polyline fill="none" vector-effect="none" points="367.256,42.9276 367.256,80.5424 " />
<polyline fill="none" vector-effect="none" points="2226.32,42.9276 2226.32,80.5424 " />
<polyline fill="none" vector-effect="none" points="72.006,80.5424 367.256,80.5424 " />
<polyline fill="none" vector-effect="none" points="1296.79,80.5424 1606.63,80.5424 " />
<polyline fill="none" vector-effect="none" points="1606.63,42.9276 1606.63,80.5424 " />
<polyline fill="none" vector-effect="none" points="1296.79,42.9276 1296.79,80.5424 " />
<polyline fill="none" vector-effect="none" points="677.1,80.5424 986.944,80.5424 " />
<polyline fill="none" vector-effect="none" points="677.1,42.9276 677.1,80.5424 " />
<polyline fill="none" vector-effect="none" points="1916.47,80.5424 2226.32,80.5424 " />
<polyline fill="none" vector-effect="none" points="72.006,80.5424 72.006,220.078 " />
<polyline fill="none" vector-effect="none" points="1916.47,42.9276 1916.47,80.5424 " />
<polyline fill="none" vector-effect="none" points="986.944,42.9276 986.944,80.5424 " />
<polyline fill="none" vector-effect="none" points="1076.09,1897.68 1076.09,1591.08 " />
<polyline fill="none" vector-effect="none" points="1038.48,1591.08 1076.09,1591.08 " />
<polyline fill="none" vector-effect="none" points="1865.41,966.647 1865.41,671.279 " />
<polyline fill="none" vector-effect="none" points="1865.41,2825.71 1865.41,2515.63 " />
<polyline fill="none" vector-effect="none" points="1865.41,3430.69 1865.41,3135.32 " />
<polyline fill="none" vector-effect="none" points="1314.04,3468.3 1589.85,3468.3 " />
<polyline fill="none" vector-effect="none" points="1038.48,3430.69 1038.48,3124.08 " />
<polyline fill="none" vector-effect="none" points="1038.48,3124.08 1076.09,3124.08 " />
<polyline fill="none" vector-effect="none" points="1314.04,633.664 1589.85,633.664 " />
<polyline fill="none" vector-effect="none" points="1038.48,2817.48 1038.48,2510.88 " />
<polyline fill="none" vector-effect="none" points="1314.04,3430.69 1314.04,3468.3 " />
<polyline fill="none" vector-effect="none" points="1038.48,3430.69 1314.04,3430.69 " />
<polyline fill="none" vector-effect="none" points="1589.85,3430.69 1865.41,3430.69 " />
<polyline fill="none" vector-effect="none" points="1589.85,3430.69 1589.85,3468.3 " />
<polyline fill="none" vector-effect="none" points="1314.04,671.279 1038.48,671.279 " />
<polyline fill="none" vector-effect="none" points="1589.85,671.279 1589.85,633.664 " />
<polyline fill="none" vector-effect="none" points="1865.41,671.279 1589.85,671.279 " />
<polyline fill="none" vector-effect="none" points="1827.8,2825.71 1865.41,2825.71 " />
<polyline fill="none" vector-effect="none" points="1827.8,3135.32 1827.8,2825.71 " />
<polyline fill="none" vector-effect="none" points="1038.48,2817.48 1076.09,2817.48 " />
<polyline fill="none" vector-effect="none" points="1827.8,1586.33 1865.41,1586.33 " />
<polyline fill="none" vector-effect="none" points="1160.86,880.052 1161.03,873.616 1161.53,867.197 1162.36,860.812 1163.53,854.48 1165.02,848.216 1166.83,842.039 1168.96,835.963 1171.41,830.007 1174.16,824.186 1177.21,818.515 1180.55,813.01 1184.17,807.686 1188.06,802.556 1192.21,797.636 1196.61,792.938 1201.25,788.475 1206.12,784.259 1211.2,780.301 1216.47,776.611 1221.94,773.201 1227.57,770.079 1233.35,767.253 1239.28,764.731 1245.32,762.52 1251.48,760.626 1257.72,759.054 1264.04,757.809 1270.41,756.892 1276.82,756.308 1283.26,756.057 1289.69,756.141 1296.12,756.559 1302.51,757.309 1308.86,758.391 1315.14,759.8 1321.34,761.534 1327.45,763.587 1333.43,765.954 1339.29,768.628 1345,771.603 1350.55,774.871 1355.92,778.422 1361.1,782.247 1366.07,786.335 1370.83,790.676 1375.35,795.259 1379.63,800.069 1383.65,805.096 1387.41,810.324 1390.89,815.741 1394.09,821.33 1396.99,827.078 1399.58,832.969 1401.87,838.987 1403.85,845.116 1405.5,851.338 1406.83,857.638 1407.83,863.999 1408.49,870.403 1408.83,876.833 1408.83,883.271 1408.49,889.701 1407.83,896.105 1406.83,902.465 1405.5,908.765 1403.85,914.988 1401.87,921.117 1399.58,927.135 1396.99,933.025 1394.09,938.773 1390.89,944.363 1387.41,949.78 1383.65,955.008 1379.63,960.035 1375.35,964.845 1370.83,969.427 1366.07,973.769 1361.1,977.857 1355.92,981.682 1350.55,985.233 1345,988.5 1339.29,991.475 1333.43,994.15 1327.45,996.517 1321.34,998.57 1315.14,1000.3 1308.86,1001.71 1302.51,1002.79 1296.12,1003.55 1289.69,1003.96 1283.26,1004.05 1276.82,1003.8 1270.41,1003.21 1264.04,1002.3 1257.72,1001.05 1251.48,999.477 1245.32,997.583 1239.28,995.373 1233.35,992.851 1227.57,990.025 1221.94,986.903 1216.47,983.492 1211.2,979.803 1206.12,975.845 1201.25,971.629 1196.61,967.166 1192.21,962.468 1188.06,957.547 1184.17,952.418 1180.55,947.094 1177.21,941.589 1174.16,935.918 1171.41,930.097 1168.96,924.14 1166.83,918.065 1165.02,911.888 1163.53,905.624 1162.36,899.292 1161.53,892.907 1161.03,886.488 1160.86,880.052 " />
<polyline fill="none" vector-effect="none" points="1827.8,1895.94 1865.41,1895.94 " />
<polyline fill="none" vector-effect="none" points="1314.04,671.279 1314.04,633.664 " />
<polyline fill="none" vector-effect="none" points="1038.48,2204.28 1076.09,2204.28 " />
<polyline fill="none" vector-effect="none" points="1038.48,2510.88 1076.09,2510.88 " />
<polyline fill="none" vector-effect="none" points="1865.41,2206.02 1865.41,1895.94 " />
<polyline fill="none" vector-effect="none" points="1865.41,1586.33 1865.41,1276.25 " />
<polyline fill="none" vector-effect="none" points="1038.48,2204.28 1038.48,1897.68 " />
<polyline fill="none" vector-effect="none" points="1038.48,1591.08 1038.48,1284.48 " />
<polyline fill="none" vector-effect="none" points="1038.48,977.879 1038.48,671.279 " />
<polyline fill="none" vector-effect="none" points="1827.8,3135.32 1865.41,3135.32 " />
<polyline fill="none" vector-effect="none" points="1827.8,1895.94 1827.8,1586.33 " />
<polyline fill="none" vector-effect="none" points="1827.8,966.647 1865.41,966.647 " />
<polyline fill="none" vector-effect="none" points="1827.8,2206.02 1865.41,2206.02 " />
<polyline fill="none" vector-effect="none" points="1827.8,2515.63 1827.8,2206.02 " />
<polyline fill="none" vector-effect="none" points="1827.8,2515.63 1865.41,2515.63 " />
<polyline fill="none" vector-effect="none" points="1827.8,1276.25 1827.8,966.647 " />
<polyline fill="none" vector-effect="none" points="1827.8,1276.25 1865.41,1276.25 " />
<polyline fill="none" vector-effect="none" points="1076.09,2510.88 1076.09,2204.28 " />
<polyline fill="none" vector-effect="none" points="1038.48,1897.68 1076.09,1897.68 " />
<polyline fill="none" vector-effect="none" points="1076.09,1284.48 1076.09,977.879 " />
<polyline fill="none" vector-effect="none" points="1076.09,3124.08 1076.09,2817.48 " />
<polyline fill="none" vector-effect="none" points="1038.48,977.879 1076.09,977.879 " />
<polyline fill="none" vector-effect="none" points="1038.48,1284.48 1076.09,1284.48 " />
<polyline fill="none" vector-effect="none" points="4534.91,2936.61 4534.91,2974.23 " />
<polyline fill="none" vector-effect="none" points="4534.91,2974.23 4672.69,2974.23 " />
<polyline fill="none" vector-effect="none" points="4810.59,3113.88 4810.59,2936.61 " />
<polyline fill="none" vector-effect="none" points="4810.59,3468.3 4810.59,3291.03 " />
<polyline fill="none" vector-effect="none" points="4534.91,3468.3 4810.59,3468.3 " />
<polyline fill="none" vector-effect="none" points="4259.34,3468.3 4259.34,3430.69 " />
<polyline fill="none" vector-effect="none" points="3983.66,3468.3 4259.34,3468.3 " />
<polyline fill="none" vector-effect="none" points="3983.66,3468.3 3983.66,3153.25 " />
<polyline fill="none" vector-effect="none" points="3983.66,2838.32 3983.66,2523.1 " />
<polyline fill="none" vector-effect="none" points="4121.64,2661.08 3983.66,2523.1 " />
<polyline fill="none" vector-effect="none" points="4121.64,2661.08 4095.04,2687.68 " />
<polyline fill="none" vector-effect="none" points="4095.04,2687.68 4232.83,2825.46 " />
<polyline fill="none" vector-effect="none" points="4259.42,2798.87 4232.83,2825.46 " />
<polyline fill="none" vector-effect="none" points="4534.91,2936.61 4397.17,2936.61 " />
<polyline fill="none" vector-effect="none" points="4397.17,2936.61 4259.42,2798.87 " />
<polyline fill="none" vector-effect="none" points="4810.59,2936.61 4672.69,2936.61 " />
<polyline fill="none" vector-effect="none" points="4672.69,2936.61 4672.69,2974.23 " />
<polyline fill="none" vector-effect="none" points="4534.91,3430.69 4259.34,3430.69 " />
<polyline fill="none" vector-effect="none" points="4534.91,3468.3 4534.91,3430.69 " />
<polyline fill="none" vector-effect="none" points="4772.98,3113.88 4772.98,3291.03 " />
<polyline fill="none" vector-effect="none" points="4810.59,3291.03 4772.98,3291.03 " />
<polyline fill="none" vector-effect="none" points="4810.59,3113.88 4772.98,3113.88 " />
<polyline fill="none" vector-effect="none" points="4021.27,3153.25 4021.27,2838.32 " />
<polyline fill="none" vector-effect="none" points="3983.66,2838.32 4021.27,2838.32 " />
<polyline fill="none" vector-effect="none" points="3983.66,3153.25 4021.27,3153.25 " />
<polyline fill="none" vector-effect="none" points="125.034,671.279 349.325,671.279 " />
<polyline fill="none" vector-effect="none" points="349.325,633.664 349.325,671.279 " />
<polyline fill="none" vector-effect="none" points="664.494,633.664 349.325,633.664 " />
<polyline fill="none" vector-effect="none" points="664.494,633.664 664.494,671.279 " />
<polyline fill="none" vector-effect="none" points="664.494,671.279 941.813,671.279 " />
<polyline fill="none" vector-effect="none" points="349.325,3468.3 349.325,3430.69 " />
<polyline fill="none" vector-effect="none" points="349.325,3430.69 125.034,3430.69 " />
<polyline fill="none" vector-effect="none" points="941.813,3430.69 664.494,3430.69 " />
<polyline fill="none" vector-effect="none" points="941.813,1897.8 941.813,2204.16 " />
<polyline fill="none" vector-effect="none" points="979.427,2204.16 941.813,2204.16 " />
<polyline fill="none" vector-effect="none" points="979.427,1284.6 941.813,1284.6 " />
<polyline fill="none" vector-effect="none" points="941.813,1284.6 941.813,1590.96 " />
<polyline fill="none" vector-effect="none" points="979.427,1590.96 941.813,1590.96 " />
<polyline fill="none" vector-effect="none" points="664.494,3468.3 664.494,3430.69 " />
<polyline fill="none" vector-effect="none" points="664.494,3468.3 349.325,3468.3 " />
<polyline fill="none" vector-effect="none" points="34.3912,1284.6 125.034,1284.6 " />
<polyline fill="none" vector-effect="none" points="34.3912,2511 34.3912,2204.16 " />
<polyline fill="none" vector-effect="none" points="34.3912,1897.8 34.3912,1590.96 " />
<polyline fill="none" vector-effect="none" points="34.3912,1284.6 34.3912,977.761 " />
<polyline fill="none" vector-effect="none" points="34.3912,3124.2 34.3912,2817.37 " />
<polyline fill="none" vector-effect="none" points="979.427,1284.6 979.427,977.761 " />
<polyline fill="none" vector-effect="none" points="979.427,3124.2 979.427,2817.37 " />
<polyline fill="none" vector-effect="none" points="979.427,2511 979.427,2204.16 " />
<polyline fill="none" vector-effect="none" points="34.3912,977.761 125.034,977.761 " />
<polyline fill="none" vector-effect="none" points="34.3912,2204.16 125.034,2204.16 " />
<polyline fill="none" vector-effect="none" points="125.034,2204.16 125.034,1897.8 " />
<polyline fill="none" vector-effect="none" points="34.3912,1897.8 125.034,1897.8 " />
<polyline fill="none" vector-effect="none" points="34.3912,1590.96 125.034,1590.96 " />
<polyline fill="none" vector-effect="none" points="125.034,1590.96 125.034,1284.6 " />
<polyline fill="none" vector-effect="none" points="979.427,2817.37 941.813,2817.37 " />
<polyline fill="none" vector-effect="none" points="125.034,3430.69 125.034,3124.2 " />
<polyline fill="none" vector-effect="none" points="34.3912,3124.2 125.034,3124.2 " />
<polyline fill="none" vector-effect="none" points="941.813,671.279 941.813,977.761 " />
<polyline fill="none" vector-effect="none" points="979.427,977.761 941.813,977.761 " />
<polyline fill="none" vector-effect="none" points="979.427,3124.2 941.813,3124.2 " />
<polyline fill="none" vector-effect="none" points="979.427,2511 941.813,2511 " />
<polyline fill="none" vector-effect="none" points="941.813,3124.2 941.813,3430.69 " />
<polyline fill="none" vector-effect="none" points="979.427,1897.8 979.427,1590.96 " />
<polyline fill="none" vector-effect="none" points="941.813,2511 941.813,2817.37 " />
<polyline fill="none" vector-effect="none" points="125.034,977.761 125.034,671.279 " />
<polyline fill="none" vector-effect="none" points="34.3912,2511 125.034,2511 " />
<polyline fill="none" vector-effect="none" points="125.034,2817.37 125.034,2511 " />
<polyline fill="none" vector-effect="none" points="34.3912,2817.37 125.034,2817.37 " />
<polyline fill="none" vector-effect="none" points="979.427,1897.8 941.813,1897.8 " />
<polyline fill="none" vector-effect="none" points="2509.15,966.647 2509.15,1276.25 " />
<polyline fill="none" vector-effect="none" points="2556.39,1276.25 2509.15,1276.25 " />
<polyline fill="none" vector-effect="none" points="2556.39,1276.25 2556.39,1586.33 " />
<polyline fill="none" vector-effect="none" points="2556.39,1586.33 2509.15,1586.33 " />
<polyline fill="none" vector-effect="none" points="2509.15,1586.33 2509.15,1895.94 " />
<polyline fill="none" vector-effect="none" points="2556.39,1895.94 2509.15,1895.94 " />
<polyline fill="none" vector-effect="none" points="2556.39,1895.94 2556.39,2206.02 " />
<polyline fill="none" vector-effect="none" points="2556.39,2206.02 2509.15,2206.02 " />
<polyline fill="none" vector-effect="none" points="2509.15,2206.02 2509.15,2515.63 " />
<polyline fill="none" vector-effect="none" points="2556.39,2515.63 2509.15,2515.63 " />
<polyline fill="none" vector-effect="none" points="2556.39,2515.63 2556.39,2825.71 " />
<polyline fill="none" vector-effect="none" points="2556.39,2825.71 2509.15,2825.71 " />
<polyline fill="none" vector-effect="none" points="2509.15,2825.71 2509.15,3135.32 " />
<polyline fill="none" vector-effect="none" points="2556.39,3135.32 2509.15,3135.32 " />
<polyline fill="none" vector-effect="none" points="2556.39,3135.32 2556.39,3430.69 " />
<polyline fill="none" vector-effect="none" points="2314.41,3430.69 2556.39,3430.69 " />
<polyline fill="none" vector-effect="none" points="2314.41,3430.69 2314.41,3468.3 " />
<polyline fill="none" vector-effect="none" points="2314.41,3468.3 2119.32,3468.3 " />
<polyline fill="none" vector-effect="none" points="2119.32,3430.69 2119.32,3468.3 " />
<polyline fill="none" vector-effect="none" points="1924.46,3430.69 2119.32,3430.69 " />
<polyline fill="none" vector-effect="none" points="1924.46,3124.08 2015.11,3124.08 " />
<polyline fill="none" vector-effect="none" points="2015.11,3124.08 2015.11,2817.48 " />
<polyline fill="none" vector-effect="none" points="1924.46,2817.48 2015.11,2817.48 " />
<polyline fill="none" vector-effect="none" points="1924.46,2510.88 1924.46,2817.48 " />
<polyline fill="none" vector-effect="none" points="1924.46,2510.88 2015.11,2510.88 " />
<polyline fill="none" vector-effect="none" points="2015.11,2510.88 2015.11,2204.28 " />
<polyline fill="none" vector-effect="none" points="1924.46,2204.28 2015.11,2204.28 " />
<polyline fill="none" vector-effect="none" points="1924.46,1897.68 2015.11,1897.68 " />
<polyline fill="none" vector-effect="none" points="2015.11,1897.68 2015.11,1591.08 " />
<polyline fill="none" vector-effect="none" points="1924.46,1591.08 2015.11,1591.08 " />
<polyline fill="none" vector-effect="none" points="1924.46,1284.48 1924.46,1591.08 " />
<polyline fill="none" vector-effect="none" points="1924.46,1284.48 2015.11,1284.48 " />
<polyline fill="none" vector-effect="none" points="2015.11,1284.48 2015.11,977.879 " />
<polyline fill="none" vector-effect="none" points="1924.46,977.879 2015.11,977.879 " />
<polyline fill="none" vector-effect="none" points="1924.46,671.279 1924.46,977.879 " />
<polyline fill="none" vector-effect="none" points="2119.32,671.279 2119.32,633.664 " />
<polyline fill="none" vector-effect="none" points="2314.41,633.664 2119.32,633.664 " />
<polyline fill="none" vector-effect="none" points="2314.41,671.279 2314.41,633.664 " />
<polyline fill="none" vector-effect="none" points="2556.39,671.279 2314.41,671.279 " />
<polyline fill="none" vector-effect="none" points="2556.39,671.279 2556.39,966.647 " />
<polyline fill="none" vector-effect="none" points="2556.39,966.647 2509.15,966.647 " />
<polyline fill="none" vector-effect="none" points="1924.46,3124.08 1924.46,3430.69 " />
<polyline fill="none" vector-effect="none" points="1924.46,1897.68 1924.46,2204.28 " />
<polyline fill="none" vector-effect="none" points="2119.32,671.279 1924.46,671.279 " />
<polyline fill="none" vector-effect="none" points="4373.5,1784.69 4373.34,1778.25 4372.84,1771.83 4372,1765.45 4370.84,1759.11 4369.35,1752.85 4367.53,1746.67 4365.4,1740.6 4362.96,1734.64 4360.21,1728.82 4357.16,1723.15 4353.82,1717.64 4350.2,1712.32 4346.31,1707.19 4342.15,1702.27 4337.75,1697.57 4333.11,1693.11 4328.24,1688.89 4323.17,1684.94 4317.89,1681.25 4312.43,1677.84 4306.8,1674.71 4301.01,1671.89 4295.09,1669.37 4289.04,1667.16 4282.89,1665.26 4276.64,1663.69 4270.33,1662.44 4263.95,1661.53 4257.54,1660.94 4251.11,1660.69 4244.67,1660.78 4238.25,1661.19 4231.85,1661.94 4225.5,1663.03 4219.22,1664.43 4213.02,1666.17 4206.92,1668.22 4200.93,1670.59 4195.07,1673.26 4189.36,1676.24 4183.82,1679.51 4178.45,1683.06 4173.27,1686.88 4168.29,1690.97 4163.54,1695.31 4159.01,1699.89 4154.74,1704.7 4150.71,1709.73 4146.95,1714.96 4143.47,1720.38 4140.28,1725.97 4137.38,1731.71 4134.78,1737.6 4132.49,1743.62 4130.52,1749.75 4128.86,1755.97 4127.54,1762.27 4126.54,1768.63 4125.87,1775.04 4125.54,1781.47 4125.54,1787.91 4125.87,1794.34 4126.54,1800.74 4127.54,1807.1 4128.86,1813.4 4130.52,1819.62 4132.49,1825.75 4134.78,1831.77 4137.38,1837.66 4140.28,1843.41 4143.47,1849 4146.95,1854.41 4150.71,1859.64 4154.74,1864.67 4159.01,1869.48 4163.54,1874.06 4168.29,1878.4 4173.27,1882.49 4178.45,1886.32 4183.82,1889.87 4189.36,1893.14 4195.07,1896.11 4200.93,1898.78 4206.92,1901.15 4213.02,1903.21 4219.22,1904.94 4225.5,1906.35 4231.85,1907.43 4238.25,1908.18 4244.67,1908.6 4251.11,1908.68 4257.54,1908.43 4263.95,1907.85 4270.33,1906.93 4276.64,1905.68 4282.89,1904.11 4289.04,1902.22 4295.09,1900.01 4301.01,1897.49 4306.8,1894.66 4312.43,1891.54 4317.89,1888.13 4323.17,1884.44 4328.24,1880.48 4333.11,1876.26 4337.75,1871.8 4342.15,1867.1 4346.31,1862.18 4350.2,1857.05 4353.82,1851.73 4357.16,1846.22 4360.21,1840.55 4362.96,1834.73 4365.4,1828.78 4367.53,1822.7 4369.35,1816.52 4370.84,1810.26 4372,1803.93 4372.84,1797.54 4373.34,1791.12 4373.5,1784.69 " />
<polyline fill="none" vector-effect="none" points="4698.28,1784.69 4698.11,1779.04 4697.6,1773.41 4696.76,1767.82 4695.58,1762.29 4694.08,1756.84 4692.25,1751.49 4690.11,1746.26 4687.66,1741.17 4684.9,1736.23 4681.86,1731.46 4678.54,1726.89 4674.95,1722.52 4671.1,1718.38 4667.02,1714.47 4662.71,1710.82 4658.18,1707.43 4653.46,1704.31 4648.57,1701.49 4643.51,1698.96 4638.32,1696.74 4632.99,1694.83 4627.57,1693.25 4622.06,1691.99 4616.48,1691.06 4610.86,1690.47 4605.21,1690.22 4599.56,1690.3 4593.92,1690.72 4588.32,1691.48 4582.77,1692.58 4577.3,1694 4571.93,1695.74 4566.67,1697.81 4561.54,1700.19 4556.56,1702.86 4551.75,1705.84 4547.13,1709.09 4542.71,1712.61 4538.51,1716.4 4534.54,1720.42 4530.82,1724.68 4527.36,1729.15 4524.18,1733.82 4521.28,1738.68 4518.67,1743.69 4516.38,1748.86 4514.39,1754.15 4512.72,1759.55 4511.38,1765.04 4510.37,1770.61 4509.7,1776.22 4509.36,1781.86 4509.36,1787.51 4509.7,1793.16 4510.37,1798.77 4511.38,1804.33 4512.72,1809.82 4514.39,1815.22 4516.38,1820.52 4518.67,1825.68 4521.28,1830.7 4524.18,1835.55 4527.36,1840.22 4530.82,1844.69 4534.54,1848.95 4538.51,1852.98 4542.71,1856.76 4547.13,1860.28 4551.75,1863.54 4556.56,1866.51 4561.54,1869.19 4566.67,1871.56 4571.93,1873.63 4577.3,1875.38 4582.77,1876.8 4588.32,1877.89 4593.92,1878.65 4599.56,1879.07 4605.21,1879.16 4610.86,1878.9 4616.48,1878.31 4622.06,1877.39 4627.57,1876.13 4632.99,1874.54 4638.32,1872.64 4643.51,1870.41 4648.57,1867.89 4653.46,1865.06 4658.18,1861.94 4662.71,1858.55 4667.02,1854.9 4671.1,1850.99 4674.95,1846.85 4678.54,1842.48 4681.86,1837.91 4684.9,1833.15 4687.66,1828.21 4690.11,1823.12 4692.25,1817.88 4694.08,1812.54 4695.58,1807.09 4696.76,1801.56 4697.6,1795.97 4698.11,1790.34 4698.28,1784.69 " />
<polyline fill="none" vector-effect="none" points="4772.98,1696.11 4772.98,1873.26 " />
<polyline fill="none" vector-effect="none" points="4810.59,1873.26 4772.98,1873.26 " />
<polyline fill="none" vector-effect="none" points="4810.59,1873.26 4810.59,2050.53 " />
<polyline fill="none" vector-effect="none" points="4810.59,2050.53 4672.69,2050.53 " />
<polyline fill="none" vector-effect="none" points="4672.69,2012.91 4534.91,2012.91 " />
<polyline fill="none" vector-effect="none" points="4534.91,2050.53 4534.91,2012.91 " />
<polyline fill="none" vector-effect="none" points="4534.91,2050.53 4397.17,2050.53 " />
<polyline fill="none" vector-effect="none" points="4397.17,2050.53 4259.42,2188.28 " />
<polyline fill="none" vector-effect="none" points="4259.42,2188.28 4232.83,2161.68 " />
<polyline fill="none" vector-effect="none" points="4232.83,2161.68 4095.04,2299.46 " />
<polyline fill="none" vector-effect="none" points="4121.64,2326.06 4095.04,2299.46 " />
<polyline fill="none" vector-effect="none" points="4121.64,2326.06 3983.66,2464.05 " />
<polyline fill="none" vector-effect="none" points="3983.66,2148.83 3983.66,2464.05 " />
<polyline fill="none" vector-effect="none" points="3983.66,2148.83 4021.27,2148.83 " />
<polyline fill="none" vector-effect="none" points="4021.27,2148.83 4021.27,1833.89 " />
<polyline fill="none" vector-effect="none" points="3983.66,1833.89 4021.27,1833.89 " />
<polyline fill="none" vector-effect="none" points="3983.66,1518.84 3983.66,1833.89 " />
<polyline fill="none" vector-effect="none" points="3983.66,1518.84 4259.34,1518.84 " />
<polyline fill="none" vector-effect="none" points="4259.34,1518.84 4259.34,1556.46 " />
<polyline fill="none" vector-effect="none" points="4259.34,1556.46 4534.91,1556.46 " />
<polyline fill="none" vector-effect="none" points="4534.91,1518.84 4534.91,1556.46 " />
<polyline fill="none" vector-effect="none" points="4534.91,1518.84 4810.59,1518.84 " />
<polyline fill="none" vector-effect="none" points="4810.59,1518.84 4810.59,1696.11 " />
<polyline fill="none" vector-effect="none" points="4810.59,1696.11 4772.98,1696.11 " />
<polyline fill="none" vector-effect="none" points="4672.69,2050.53 4672.69,2012.91 " />
<polyline fill="none" vector-effect="none" points="2733.65,810.932 2733.65,1165.23 " />
<polyline fill="none" vector-effect="none" points="2910.8,1165.23 2733.65,1165.23 " />
<polyline fill="none" vector-effect="none" points="2910.8,810.932 2910.8,1165.23 " />
<polyline fill="none" vector-effect="none" points="2910.8,810.932 2733.65,810.932 " />
<polyline fill="none" vector-effect="none" points="2733.65,1873.83 2733.65,2228.13 " />
<polyline fill="none" vector-effect="none" points="2910.8,2228.13 2733.65,2228.13 " />
<polyline fill="none" vector-effect="none" points="2910.8,1873.83 2910.8,2228.13 " />
<polyline fill="none" vector-effect="none" points="2910.8,1873.83 2733.65,1873.83 " />
<polyline fill="none" vector-effect="none" points="2910.8,2405.28 2910.8,2759.58 " />
<polyline fill="none" vector-effect="none" points="2910.8,2405.28 2733.65,2405.28 " />
<polyline fill="none" vector-effect="none" points="2733.65,2936.73 2733.65,3291.03 " />
<polyline fill="none" vector-effect="none" points="2910.8,3291.03 2733.65,3291.03 " />
<polyline fill="none" vector-effect="none" points="2910.8,2936.73 2910.8,3291.03 " />
<polyline fill="none" vector-effect="none" points="2733.65,1342.38 2733.65,1696.68 " />
<polyline fill="none" vector-effect="none" points="2910.8,1696.68 2733.65,1696.68 " />
<polyline fill="none" vector-effect="none" points="2910.8,1342.38 2910.8,1696.68 " />
<polyline fill="none" vector-effect="none" points="2910.8,1342.38 2733.65,1342.38 " />
<polyline fill="none" vector-effect="none" points="3029.02,1276.37 3029.02,966.529 " />
<polyline fill="none" vector-effect="none" points="2995.5,1276.37 3029.02,1276.37 " />
<polyline fill="none" vector-effect="none" points="2995.5,1586.22 2995.5,1276.37 " />
<polyline fill="none" vector-effect="none" points="2995.5,1586.22 3029.02,1586.22 " />
<polyline fill="none" vector-effect="none" points="3029.02,1896.06 3029.02,1586.22 " />
<polyline fill="none" vector-effect="none" points="2995.5,1896.06 3029.02,1896.06 " />
<polyline fill="none" vector-effect="none" points="2995.5,2205.9 2995.5,1896.06 " />
<polyline fill="none" vector-effect="none" points="2995.5,2205.9 3029.02,2205.9 " />
<polyline fill="none" vector-effect="none" points="3029.02,2515.75 3029.02,2205.9 " />
<polyline fill="none" vector-effect="none" points="2995.5,2515.75 3029.02,2515.75 " />
<polyline fill="none" vector-effect="none" points="2995.5,2825.59 2995.5,2515.75 " />
<polyline fill="none" vector-effect="none" points="2995.5,2825.59 3029.02,2825.59 " />
<polyline fill="none" vector-effect="none" points="3029.02,3135.44 3029.02,2825.59 " />
<polyline fill="none" vector-effect="none" points="2995.5,3135.44 3029.02,3135.44 " />
<polyline fill="none" vector-effect="none" points="2995.5,3430.69 2995.5,3135.44 " />
<polyline fill="none" vector-effect="none" points="2753.22,3468.3 2891.24,3468.3 " />
<polyline fill="none" vector-effect="none" points="2615.44,3430.69 2753.22,3430.69 " />
<polyline fill="none" vector-effect="none" points="2615.44,3430.69 2615.44,3124.08 " />
<polyline fill="none" vector-effect="none" points="2615.44,3124.08 2653.05,3124.08 " />
<polyline fill="none" vector-effect="none" points="2653.05,3124.08 2653.05,2817.48 " />
<polyline fill="none" vector-effect="none" points="2615.44,2817.48 2653.05,2817.48 " />
<polyline fill="none" vector-effect="none" points="2615.44,2510.88 2653.05,2510.88 " />
<polyline fill="none" vector-effect="none" points="2615.44,1897.68 2653.05,1897.68 " />
<polyline fill="none" vector-effect="none" points="2653.05,1897.68 2653.05,1591.08 " />
<polyline fill="none" vector-effect="none" points="2615.44,1591.08 2653.05,1591.08 " />
<polyline fill="none" vector-effect="none" points="2615.44,1284.48 2653.05,1284.48 " />
<polyline fill="none" vector-effect="none" points="2653.05,1284.48 2653.05,977.879 " />
<polyline fill="none" vector-effect="none" points="2615.44,977.879 2653.05,977.879 " />
<polyline fill="none" vector-effect="none" points="2753.22,633.664 2891.24,633.664 " />
<polyline fill="none" vector-effect="none" points="2995.5,966.529 2995.5,671.279 " />
<polyline fill="none" vector-effect="none" points="2995.5,966.529 3029.02,966.529 " />
<polyline fill="none" vector-effect="none" points="2753.22,3430.69 2753.22,3468.3 " />
<polyline fill="none" vector-effect="none" points="2733.65,2405.28 2733.65,2759.58 " />
<polyline fill="none" vector-effect="none" points="2910.8,2759.58 2733.65,2759.58 " />
<polyline fill="none" vector-effect="none" points="2995.5,671.279 2891.24,671.279 " />
<polyline fill="none" vector-effect="none" points="2910.8,2936.73 2733.65,2936.73 " />
<polyline fill="none" vector-effect="none" points="2753.22,671.279 2753.22,633.664 " />
<polyline fill="none" vector-effect="none" points="2653.05,2510.88 2653.05,2204.28 " />
<polyline fill="none" vector-effect="none" points="2615.44,2204.28 2653.05,2204.28 " />
<polyline fill="none" vector-effect="none" points="2615.44,2204.28 2615.44,1897.68 " />
<polyline fill="none" vector-effect="none" points="2753.22,671.279 2615.44,671.279 " />
<polyline fill="none" vector-effect="none" points="2891.24,3430.69 2995.5,3430.69 " />
<polyline fill="none" vector-effect="none" points="2891.24,671.279 2891.24,633.664 " />
<polyline fill="none" vector-effect="none" points="2615.44,977.879 2615.44,671.279 " />
<polyline fill="none" vector-effect="none" points="2615.44,2817.48 2615.44,2510.88 " />
<polyline fill="none" vector-effect="none" points="2615.44,1591.08 2615.44,1284.48 " />
<polyline fill="none" vector-effect="none" points="2891.24,3430.69 2891.24,3468.3 " />
</g>

<g fill="none" stroke="#000000" stroke-opacity="1" stroke-width="1" stroke-linecap="square" stroke-linejoin="bevel" transform="matrix(1,0,0,1,0,0)"
font-family="Arial" font-size="12" font-weight="400" font-style="normal" 
>
</g>
</g>
</svg>
